# xmcd CD database file
#
# Track frame offsets:
#	150
#	8478
#	25930
#	42696
#	60603
#	85349
#	104742
#	118559
#	131560
#	143280
#	158641
#	176024
#	194998
#	214210
#
# Disc length: 3075 seconds
#
# Revision: 1
# Processed by: cddbd v1.5.1PL0 Copyright (c) Steve Scherf et al.
# Submitted via: CDex 1.51
#
DISCID=c60c010e
DTITLE=Mando Diao - Hurricane Bar
DYEAR=2004
DGENRE=Rock
TTITLE0=Cut The Rope
TTITLE1=God Knows
TTITLE2=Clean Town
TTITLE3=Down In The Past
TTITLE4=You Can't Steal My Love
TTITLE5=Added Family
TTITLE6=Annie's Angel
TTITLE7=If I Leave You
TTITLE8=Ringing Bells
TTITLE9=This Dream Is Over
TTITLE10=White Wall
TTITLE11=All My Senses
TTITLE12=Kingdom and Glory
TTITLE13=Next To Be Lowered
EXTD=YEAR: 2004
EXTT0=
EXTT1=
EXTT2=
EXTT3=
EXTT4=
EXTT5=
EXTT6=
EXTT7=
EXTT8=
EXTT9=
EXTT10=
EXTT11=
EXTT12=
EXTT13=
PLAYORDER=
